<svg xmlns="http://www.w3.org/2000/svg" width="1800" height="600" viewBox="0 0 1800 600"><defs><radialGradient id="g1" cx="70%" cy="30%" r="60%"><stop stop-color="#5d6cff" stop-opacity=".48"/><stop offset="1" stop-color="#0d1118" stop-opacity="0"/></radialGradient><radialGradient id="g2" cx="25%" cy="75%" r="55%"><stop stop-color="#21d4b4" stop-opacity=".28"/><stop offset="1" stop-color="#0d1118" stop-opacity="0"/></radialGradient><linearGradient id="bg" x1="0" y1="0" x2="1" y2="1"><stop stop-color="#0a0f16"/><stop offset="1" stop-color="#151b24"/></linearGradient><filter id="blur"><feGaussianBlur stdDeviation="30"/></filter></defs><rect width="1800" height="600" fill="url(#bg)"/><rect width="1800" height="600" fill="url(#g1)"/><rect width="1800" height="600" fill="url(#g2)"/><g opacity=".92"><rect x="80" y="90" width="420" height="190" rx="34" fill="#121a26" stroke="#51617a" stroke-opacity=".35"/><rect x="120" y="130" width="120" height="110" rx="24" fill="#202d40"/><circle cx="180" cy="185" r="32" fill="#6d7cff"/><path d="M285 155h150M285 190h110M285 225h130" stroke="#7f8ea3" stroke-width="12" stroke-linecap="round"/></g><g><rect x="550" y="70" width="360" height="430" rx="42" fill="#101722" stroke="#52617a" stroke-opacity=".28"/><circle cx="730" cy="240" r="108" fill="none" stroke="#253248" stroke-width="30"/><path d="M730 132a108 108 0 0 1 93 53" fill="none" stroke="#6d7cff" stroke-width="30" stroke-linecap="round"/><circle cx="730" cy="240" r="20" fill="#21d4b4"/><path d="M620 400h220" stroke="#39475b" stroke-width="14" stroke-linecap="round"/><path d="M620 438h150" stroke="#39475b" stroke-width="10" stroke-linecap="round"/></g><g><rect x="980" y="105" width="300" height="160" rx="30" fill="#151f2d" stroke="#59677a" stroke-opacity=".32"/><path d="M1035 215l55-55 42 36 70-82" fill="none" stroke="#21d4b4" stroke-width="10" stroke-linecap="round" stroke-linejoin="round"/><circle cx="1202" cy="114" r="10" fill="#21d4b4"/></g><g><rect x="1010" y="315" width="310" height="190" rx="34" fill="#121a26" stroke="#59677a" stroke-opacity=".32"/><rect x="1060" y="365" width="52" height="90" rx="14" fill="#36455c"/><rect x="1132" y="330" width="52" height="125" rx="14" fill="#5667ff"/><rect x="1204" y="390" width="52" height="65" rx="14" fill="#21d4b4"/></g><g><circle cx="1500" cy="260" r="155" fill="#111925" stroke="#627088" stroke-opacity=".26"/><circle cx="1500" cy="260" r="105" fill="none" stroke="#2b3546" stroke-width="2"/><circle cx="1500" cy="260" r="56" fill="#202b3c"/><circle cx="1500" cy="260" r="18" fill="#ffcf6e"/><circle cx="1402" cy="218" r="13" fill="#6d7cff"/><circle cx="1582" cy="190" r="11" fill="#21d4b4"/><circle cx="1605" cy="318" r="9" fill="#ff8c77"/><path d="M1500 260L1402 218M1500 260L1582 190M1500 260L1605 318" stroke="#637087" stroke-width="3"/></g><g opacity=".3"><path d="M0 520C280 430 360 570 620 500S1110 390 1800 500" fill="none" stroke="#7890ad" stroke-width="2"/><circle cx="300" cy="500" r="4" fill="#9bb7d7"/><circle cx="900" cy="450" r="4" fill="#9bb7d7"/></g></svg>