<svg xmlns="http://www.w3.org/2000/svg" width="1800" height="600" viewBox="0 0 1800 600"><defs><linearGradient id="bg" x1="0" y1="0" x2="1" y2="1"><stop stop-color="#0d1218"/><stop offset="1" stop-color="#20272f"/></linearGradient><radialGradient id="g1" cx="24%" cy="72%" r="55%"><stop stop-color="#42d8b5" stop-opacity=".26"/><stop offset="1" stop-color="#10151b" stop-opacity="0"/></radialGradient><radialGradient id="g2" cx="77%" cy="25%" r="55%"><stop stop-color="#8a73ff" stop-opacity=".34"/><stop offset="1" stop-color="#10151b" stop-opacity="0"/></radialGradient></defs><rect width="1800" height="600" fill="url(#bg)"/><rect width="1800" height="600" fill="url(#g1)"/><rect width="1800" height="600" fill="url(#g2)"/><g stroke="#667487" stroke-width="3" stroke-opacity=".48"><path d="M150 390L370 180 610 360 830 150 1080 300 1330 135 1600 350"/><path d="M370 180L490 80M610 360L700 500M830 150L950 70M1080 300L1190 480M1330 135L1460 70"/></g><g fill="#101720" stroke="#718094" stroke-opacity=".45"><circle cx="150" cy="390" r="42"/><circle cx="370" cy="180" r="48"/><circle cx="610" cy="360" r="46"/><circle cx="830" cy="150" r="52"/><circle cx="1080" cy="300" r="48"/><circle cx="1330" cy="135" r="52"/><circle cx="1600" cy="350" r="46"/></g><g><circle cx="150" cy="390" r="19" fill="#42d8b5"/><circle cx="370" cy="180" r="21" fill="#ffbd68"/><circle cx="610" cy="360" r="20" fill="#8a73ff"/><circle cx="830" cy="150" r="22" fill="#42d8b5"/><circle cx="1080" cy="300" r="21" fill="#ff8b79"/><circle cx="1330" cy="135" r="22" fill="#8a73ff"/><circle cx="1600" cy="350" r="20" fill="#ffbd68"/></g><g><rect x="80" y="75" width="300" height="170" rx="32" fill="#151e28" stroke="#647286" stroke-opacity=".35"/><path d="M130 130h185M130 170h135M130 210h165" stroke="#78879a" stroke-width="11" stroke-linecap="round"/></g><g><rect x="490" y="70" width="270" height="150" rx="30" fill="#efe8db"/><path d="M540 120h160M540 158h110" stroke="#6e685e" stroke-width="11" stroke-linecap="round"/><circle cx="700" cy="185" r="17" fill="#42d8b5"/></g><g><rect x="960" y="365" width="330" height="165" rx="32" fill="#151e28" stroke="#647286" stroke-opacity=".35"/><circle cx="1020" cy="425" r="25" fill="#8a73ff"/><path d="M1060 410h165M1060 450h115M1060 488h145" stroke="#78879a" stroke-width="11" stroke-linecap="round"/></g><g><rect x="1370" y="355" width="300" height="170" rx="32" fill="#d9d0bf"/><path d="M1425 415h175M1425 455h120" stroke="#756d61" stroke-width="11" stroke-linecap="round"/><circle cx="1610" cy="480" r="20" fill="#ff8b79"/></g><path d="M0 530C280 450 390 590 650 505S1120 420 1800 510" fill="none" stroke="#8693a5" stroke-opacity=".2" stroke-width="2"/></svg>