<svg xmlns="http://www.w3.org/2000/svg" width="1800" height="600" viewBox="0 0 1800 600"><defs><linearGradient id="bg" x1="0" y1="0" x2="1" y2="1"><stop stop-color="#0b1017"/><stop offset="1" stop-color="#171e28"/></linearGradient><linearGradient id="blue" x1="0" y1="1" x2="1" y2="0"><stop stop-color="#17304f"/><stop offset="1" stop-color="#3d8cff"/></linearGradient><pattern id="dots" width="28" height="28" patternUnits="userSpaceOnUse"><circle cx="3" cy="3" r="2" fill="#7c8da3" opacity=".22"/></pattern></defs><rect width="1800" height="600" fill="url(#bg)"/><rect x="70" y="70" width="430" height="210" rx="30" fill="#111822" stroke="#263446"/><rect x="95" y="95" width="120" height="110" fill="url(#dots)"/><path d="M70 390H720M300 55V545" stroke="#718096" opacity=".22"/><circle cx="300" cy="390" r="8" fill="#3d8cff"/><path d="M0 165C270 165 340 60 610 60" fill="none" stroke="#8fa1b7" opacity=".18" stroke-width="2"/><path d="M915 -40H1340L1120 230H695Z" fill="#334153"/><path d="M1120 160H1580L1320 470H860Z" fill="#202b39"/><path d="M1010 350L1285 75H1485L1160 455Z" fill="url(#blue)" opacity=".95"/><path d="M1330 260H1780L1605 485H1175Z" fill="#3b4755"/><path d="M1030 410L1332 106" stroke="#58a6ff" stroke-width="4"/><path d="M1390 110V330H1710" fill="none" stroke="#8fa1b7" opacity=".22"/><circle cx="1710" cy="330" r="7" fill="#3d8cff"/><rect x="1500" y="50" width="250" height="150" fill="url(#dots)" opacity=".6"/><g fill="#7f8fa3"><circle cx="910" cy="515" r="5"/><circle cx="940" cy="515" r="5" opacity=".45"/><circle cx="970" cy="515" r="5" opacity=".25"/></g></svg>