<svg xmlns="http://www.w3.org/2000/svg" width="1800" height="600" viewBox="0 0 1800 600"><defs><linearGradient id="bg" x1="0" x2="1"><stop stop-color="#273125"/><stop offset="1" stop-color="#151716"/></linearGradient><pattern id="grid" width="30" height="30" patternUnits="userSpaceOnUse"><path d="M30 0H0V30" fill="none" stroke="#899080" opacity=".18"/></pattern></defs><rect width="1800" height="600" fill="url(#bg)"/><rect x="0" y="220" width="1800" height="380" fill="#181d18" opacity=".32"/><rect x="0" y="190" width="260" height="370" fill="url(#grid)"/><path d="M130 125H570Q605 125 630 90Q655 125 690 125H760V540H130Z" fill="#eee8db"/><rect x="220" y="215" width="620" height="340" rx="28" fill="#e8e0d1"/><path d="M110 290H700L760 345V555H110Z" fill="#6e795f"/><rect x="250" y="360" width="600" height="210" rx="26" fill="#f4f0e6"/><rect x="660" y="360" width="42" height="130" fill="#788067"/><g transform="translate(1090 115)"><rect x="0" y="40" width="80" height="400" rx="8" fill="#e2ddd2"/><rect x="85" y="15" width="90" height="425" rx="8" fill="#aeb89f"/><rect x="180" y="0" width="95" height="440" rx="8" fill="#7f896f"/><rect x="280" y="55" width="90" height="385" rx="8" fill="#111312"/><rect x="380" y="80" width="78" height="360" rx="8" fill="#d9d2c4"/><rect x="465" y="115" width="65" height="325" rx="8" fill="#ece7dc"/></g><path d="M1540 300H1800V600H1420Z" fill="#e4d6c1" opacity=".7"/><path d="M1620 470c45-50 65-90 80-150M1700 320c30 20 45 45 55 80M1660 365c-40 5-70 20-90 50" stroke="#66705d" stroke-width="10" fill="none" stroke-linecap="round"/><circle cx="1650" cy="495" r="62" fill="#111513"/></svg>